<svg xmlns="http://www.w3.org/2000/svg" enable-background="new 0 0 3000 2500" viewBox="0 0 3000 2500"><rect width="3000" height="2500" fill="#ffffff" class="colorFFF svgShape"/><g opacity=".4" fill="#000000" class="color000 svgShape"><ellipse cx="423.143" cy="2219.057" fill="#1e1f21" opacity=".01" rx="330.734" ry="99.545" class="color1E1F21 svgShape"/><ellipse cx="423.143" cy="2219.057" fill="#1e1f21" opacity=".025" rx="326.814" ry="98.365" class="color1E1F21 svgShape"/><ellipse cx="423.143" cy="2219.057" fill="#1e1f21" opacity=".04" rx="322.895" ry="97.186" class="color1E1F21 svgShape"/><path fill="#1e1f21" d="M742.119,2219.058c0,53.02-142.811,96.005-318.976,96.005    c-176.166,0-318.976-42.985-318.976-96.005c0-53.025,142.81-96.01,318.976-96.01    C599.309,2123.048,742.119,2166.032,742.119,2219.058z" opacity=".055" class="color1E1F21 svgShape"/><ellipse cx="423.143" cy="2219.057" fill="#1e1f21" opacity=".07" rx="315.057" ry="94.826" class="color1E1F21 svgShape"/><path fill="#1e1f21" d="M734.281,2219.057c0,51.717-139.302,93.646-311.138,93.646    c-171.837,0-311.137-41.93-311.137-93.646c0-51.723,139.3-93.649,311.137-93.649    C594.979,2125.407,734.281,2167.334,734.281,2219.057z" opacity=".085" class="color1E1F21 svgShape"/><path fill="#1e1f21" d="M730.361,2219.058c0,51.065-137.547,92.467-307.219,92.467s-307.218-41.401-307.218-92.467    c0-51.071,137.546-92.471,307.218-92.471S730.361,2167.986,730.361,2219.058z" opacity=".1" class="color1E1F21 svgShape"/><ellipse cx="423.143" cy="2219.057" fill="#1e1f21" opacity=".115" rx="303.3" ry="91.287" class="color1E1F21 svgShape"/><ellipse cx="423.143" cy="2219.057" fill="#1e1f21" opacity=".13" rx="299.38" ry="90.107" class="color1E1F21 svgShape"/><path fill="#1e1f21" d="M718.604,2219.057c0,49.111-132.282,88.928-295.461,88.928    c-163.178,0-295.46-39.816-295.46-88.928c0-49.116,132.282-88.932,295.46-88.932    C586.321,2130.125,718.604,2169.94,718.604,2219.057z" opacity=".145" class="color1E1F21 svgShape"/><path fill="#1e1f21" d="M714.685,2219.057c0,48.46-130.529,87.748-291.542,87.748s-291.541-39.288-291.541-87.748    c0-48.465,130.527-87.751,291.541-87.751S714.685,2170.592,714.685,2219.057z" opacity=".16" class="color1E1F21 svgShape"/><ellipse cx="423.143" cy="2219.057" fill="#1e1f21" opacity=".175" rx="287.623" ry="86.569" class="color1E1F21 svgShape"/><ellipse cx="423.143" cy="2219.057" fill="#1e1f21" opacity=".19" rx="283.703" ry="85.389" class="color1E1F21 svgShape"/><ellipse cx="423.143" cy="2219.057" fill="#1e1f21" opacity=".205" rx="279.784" ry="84.209" class="color1E1F21 svgShape"/><ellipse cx="423.143" cy="2219.057" fill="#1e1f21" opacity=".22" rx="275.865" ry="83.03" class="color1E1F21 svgShape"/><ellipse cx="423.143" cy="2219.057" fill="#1e1f21" opacity=".235" rx="271.946" ry="81.85" class="color1E1F21 svgShape"/><path fill="#1e1f21" d="M691.169,2219.057c0,44.551-120,80.67-268.027,80.67    c-148.027,0-268.026-36.119-268.026-80.67c0-44.556,119.999-80.674,268.026-80.674    C571.169,2138.383,691.169,2174.501,691.169,2219.057z" opacity=".25" class="color1E1F21 svgShape"/><ellipse cx="423.143" cy="2219.057" fill="#1e1f21" opacity=".265" rx="264.107" ry="79.491" class="color1E1F21 svgShape"/><ellipse cx="423.143" cy="2219.057" fill="#1e1f21" opacity=".28" rx="260.188" ry="78.312" class="color1E1F21 svgShape"/><ellipse cx="423.143" cy="2219.057" fill="#1e1f21" opacity=".295" rx="256.269" ry="77.132" class="color1E1F21 svgShape"/><ellipse cx="423.143" cy="2219.057" fill="#1e1f21" opacity=".31" rx="252.35" ry="75.953" class="color1E1F21 svgShape"/><ellipse cx="423.143" cy="2219.057" fill="#1e1f21" opacity=".325" rx="248.43" ry="74.773" class="color1E1F21 svgShape"/><ellipse cx="423.143" cy="2219.057" fill="#1e1f21" opacity=".34" rx="244.511" ry="73.594" class="color1E1F21 svgShape"/><ellipse cx="423.143" cy="2219.057" fill="#1e1f21" opacity=".355" rx="240.592" ry="72.414" class="color1E1F21 svgShape"/><ellipse cx="423.143" cy="2219.057" fill="#1e1f21" opacity=".37" rx="236.673" ry="71.234" class="color1E1F21 svgShape"/><ellipse cx="423.143" cy="2219.057" fill="#1e1f21" opacity=".385" rx="232.754" ry="70.055" class="color1E1F21 svgShape"/><ellipse cx="423.143" cy="2219.057" fill="#1e1f21" opacity=".4" rx="228.834" ry="68.875" class="color1E1F21 svgShape"/><ellipse cx="423.143" cy="2219.057" fill="#1e1f21" opacity=".415" rx="224.916" ry="67.695" class="color1E1F21 svgShape"/><ellipse cx="423.143" cy="2219.057" fill="#1e1f21" opacity=".43" rx="220.996" ry="66.516" class="color1E1F21 svgShape"/><ellipse cx="423.143" cy="2219.057" fill="#1e1f21" opacity=".445" rx="217.077" ry="65.336" class="color1E1F21 svgShape"/><ellipse cx="423.143" cy="2219.057" fill="#1e1f21" opacity=".46" rx="213.157" ry="64.156" class="color1E1F21 svgShape"/><ellipse cx="423.143" cy="2219.057" fill="#1e1f21" opacity=".475" rx="209.239" ry="62.977" class="color1E1F21 svgShape"/><ellipse cx="423.143" cy="2219.057" fill="#1e1f21" opacity=".49" rx="205.319" ry="61.797" class="color1E1F21 svgShape"/><ellipse cx="423.143" cy="2219.057" fill="#1e1f21" opacity=".505" rx="201.4" ry="60.617" class="color1E1F21 svgShape"/><ellipse cx="423.143" cy="2219.057" fill="#1e1f21" opacity=".52" rx="197.481" ry="59.438" class="color1E1F21 svgShape"/><ellipse cx="423.143" cy="2219.057" fill="#1e1f21" opacity=".535" rx="193.562" ry="58.258" class="color1E1F21 svgShape"/><ellipse cx="423.143" cy="2219.057" fill="#1e1f21" opacity=".55" rx="189.642" ry="57.078" class="color1E1F21 svgShape"/><ellipse cx="423.143" cy="2219.057" fill="#1e1f21" opacity=".565" rx="185.723" ry="55.898" class="color1E1F21 svgShape"/><ellipse cx="423.143" cy="2219.057" fill="#1e1f21" opacity=".58" rx="181.804" ry="54.719" class="color1E1F21 svgShape"/><ellipse cx="423.143" cy="2219.057" fill="#1e1f21" opacity=".595" rx="177.885" ry="53.539" class="color1E1F21 svgShape"/><ellipse cx="423.143" cy="2219.057" fill="#1e1f21" opacity=".61" rx="173.966" ry="52.359" class="color1E1F21 svgShape"/><ellipse cx="423.143" cy="2219.057" fill="#1e1f21" opacity=".625" rx="170.046" ry="51.18" class="color1E1F21 svgShape"/><ellipse cx="423.143" cy="2219.057" fill="#1e1f21" opacity=".64" rx="166.127" ry="50" class="color1E1F21 svgShape"/><ellipse cx="423.143" cy="2219.057" fill="#1e1f21" opacity=".655" rx="162.208" ry="48.821" class="color1E1F21 svgShape"/><ellipse cx="423.143" cy="2219.057" fill="#1e1f21" opacity=".67" rx="158.289" ry="47.642" class="color1E1F21 svgShape"/><ellipse cx="423.143" cy="2219.057" fill="#1e1f21" opacity=".685" rx="154.369" ry="46.462" class="color1E1F21 svgShape"/><ellipse cx="423.143" cy="2219.057" fill="#1e1f21" opacity=".7" rx="150.45" ry="45.282" class="color1E1F21 svgShape"/><ellipse cx="423.143" cy="2219.057" fill="#1e1f21" opacity=".715" rx="146.531" ry="44.103" class="color1E1F21 svgShape"/><ellipse cx="423.143" cy="2219.057" fill="#1e1f21" opacity=".73" rx="142.612" ry="42.923" class="color1E1F21 svgShape"/><ellipse cx="423.143" cy="2219.057" fill="#1e1f21" opacity=".745" rx="138.693" ry="41.743" class="color1E1F21 svgShape"/><ellipse cx="423.143" cy="2219.057" fill="#1e1f21" opacity=".76" rx="134.773" ry="40.563" class="color1E1F21 svgShape"/><ellipse cx="423.143" cy="2219.057" fill="#1e1f21" opacity=".775" rx="130.854" ry="39.384" class="color1E1F21 svgShape"/><ellipse cx="423.143" cy="2219.057" fill="#1e1f21" opacity=".79" rx="126.935" ry="38.204" class="color1E1F21 svgShape"/><ellipse cx="423.143" cy="2219.057" fill="#1e1f21" opacity=".805" rx="123.016" ry="37.024" class="color1E1F21 svgShape"/><ellipse cx="423.143" cy="2219.057" fill="#1e1f21" opacity=".82" rx="119.097" ry="35.845" class="color1E1F21 svgShape"/><ellipse cx="423.143" cy="2219.057" fill="#1e1f21" opacity=".835" rx="115.178" ry="34.665" class="color1E1F21 svgShape"/><ellipse cx="423.143" cy="2219.057" fill="#1e1f21" opacity=".85" rx="111.259" ry="33.485" class="color1E1F21 svgShape"/><ellipse cx="423.143" cy="2219.057" fill="#1e1f21" opacity=".865" rx="107.339" ry="32.306" class="color1E1F21 svgShape"/><ellipse cx="423.143" cy="2219.057" fill="#1e1f21" opacity=".88" rx="103.42" ry="31.126" class="color1E1F21 svgShape"/><ellipse cx="423.143" cy="2219.057" fill="#1e1f21" opacity=".895" rx="99.501" ry="29.947" class="color1E1F21 svgShape"/><ellipse cx="423.143" cy="2219.057" fill="#1e1f21" opacity=".91" rx="95.582" ry="28.768" class="color1E1F21 svgShape"/><ellipse cx="423.143" cy="2219.057" fill="#1e1f21" opacity=".925" rx="91.662" ry="27.588" class="color1E1F21 svgShape"/><ellipse cx="423.143" cy="2219.057" fill="#1e1f21" opacity=".94" rx="87.743" ry="26.408" class="color1E1F21 svgShape"/><ellipse cx="423.143" cy="2219.057" fill="#1e1f21" opacity=".955" rx="83.824" ry="25.229" class="color1E1F21 svgShape"/><ellipse cx="423.143" cy="2219.057" fill="#1e1f21" opacity=".97" rx="79.905" ry="24.049" class="color1E1F21 svgShape"/><ellipse cx="423.143" cy="2219.057" fill="#1e1f21" opacity=".985" rx="75.986" ry="22.869" class="color1E1F21 svgShape"/><ellipse cx="423.143" cy="2219.057" fill="#1e1f21" rx="72.066" ry="21.689" class="color1E1F21 svgShape"/></g><g opacity=".4" fill="#000000" class="color000 svgShape"><ellipse cx="1683.424" cy="2219.057" fill="#1e1f21" opacity=".01" rx="330.734" ry="99.545" class="color1E1F21 svgShape"/><ellipse cx="1683.424" cy="2219.057" fill="#1e1f21" opacity=".025" rx="326.814" ry="98.365" class="color1E1F21 svgShape"/><ellipse cx="1683.424" cy="2219.057" fill="#1e1f21" opacity=".04" rx="322.895" ry="97.186" class="color1E1F21 svgShape"/><path fill="#1e1f21" d="M2002.4,2219.058c0,53.02-142.811,96.005-318.977,96.005    c-176.165,0-318.976-42.985-318.976-96.005c0-53.025,142.811-96.01,318.976-96.01    C1859.59,2123.048,2002.4,2166.032,2002.4,2219.058z" opacity=".055" class="color1E1F21 svgShape"/><ellipse cx="1683.424" cy="2219.057" fill="#1e1f21" opacity=".07" rx="315.057" ry="94.826" class="color1E1F21 svgShape"/><path fill="#1e1f21" d="M1994.562,2219.057c0,51.717-139.301,93.646-311.138,93.646    s-311.137-41.93-311.137-93.646c0-51.723,139.3-93.649,311.137-93.649S1994.562,2167.334,1994.562,2219.057z" opacity=".085" class="color1E1F21 svgShape"/><path fill="#1e1f21" d="M1990.643,2219.058c0,51.065-137.547,92.467-307.219,92.467s-307.218-41.401-307.218-92.467    c0-51.071,137.546-92.471,307.218-92.471S1990.643,2167.986,1990.643,2219.058z" opacity=".1" class="color1E1F21 svgShape"/><ellipse cx="1683.424" cy="2219.057" fill="#1e1f21" opacity=".115" rx="303.299" ry="91.287" class="color1E1F21 svgShape"/><ellipse cx="1683.424" cy="2219.057" fill="#1e1f21" opacity=".13" rx="299.38" ry="90.107" class="color1E1F21 svgShape"/><path fill="#1e1f21" d="M1978.885,2219.057c0,49.111-132.282,88.928-295.461,88.928s-295.46-39.816-295.46-88.928    c0-49.116,132.282-88.932,295.46-88.932S1978.885,2169.94,1978.885,2219.057z" opacity=".145" class="color1E1F21 svgShape"/><path fill="#1e1f21" d="M1974.966,2219.057c0,48.46-130.528,87.748-291.542,87.748s-291.541-39.288-291.541-87.748    c0-48.465,130.527-87.751,291.541-87.751S1974.966,2170.592,1974.966,2219.057z" opacity=".16" class="color1E1F21 svgShape"/><ellipse cx="1683.424" cy="2219.057" fill="#1e1f21" opacity=".175" rx="287.623" ry="86.569" class="color1E1F21 svgShape"/><ellipse cx="1683.424" cy="2219.057" fill="#1e1f21" opacity=".19" rx="283.704" ry="85.389" class="color1E1F21 svgShape"/><ellipse cx="1683.424" cy="2219.057" fill="#1e1f21" opacity=".205" rx="279.784" ry="84.209" class="color1E1F21 svgShape"/><ellipse cx="1683.424" cy="2219.057" fill="#1e1f21" opacity=".22" rx="275.865" ry="83.03" class="color1E1F21 svgShape"/><ellipse cx="1683.424" cy="2219.057" fill="#1e1f21" opacity=".235" rx="271.945" ry="81.85" class="color1E1F21 svgShape"/><path fill="#1e1f21" d="M1951.45,2219.057c0,44.551-120,80.67-268.026,80.67    c-148.027,0-268.026-36.119-268.026-80.67c0-44.556,119.999-80.674,268.026-80.674    C1831.45,2138.383,1951.45,2174.501,1951.45,2219.057z" opacity=".25" class="color1E1F21 svgShape"/><ellipse cx="1683.424" cy="2219.057" fill="#1e1f21" opacity=".265" rx="264.107" ry="79.491" class="color1E1F21 svgShape"/><ellipse cx="1683.424" cy="2219.057" fill="#1e1f21" opacity=".28" rx="260.188" ry="78.312" class="color1E1F21 svgShape"/><ellipse cx="1683.424" cy="2219.057" fill="#1e1f21" opacity=".295" rx="256.269" ry="77.132" class="color1E1F21 svgShape"/><ellipse cx="1683.424" cy="2219.057" fill="#1e1f21" opacity=".31" rx="252.35" ry="75.953" class="color1E1F21 svgShape"/><ellipse cx="1683.424" cy="2219.057" fill="#1e1f21" opacity=".325" rx="248.43" ry="74.773" class="color1E1F21 svgShape"/><ellipse cx="1683.424" cy="2219.057" fill="#1e1f21" opacity=".34" rx="244.511" ry="73.594" class="color1E1F21 svgShape"/><ellipse cx="1683.424" cy="2219.057" fill="#1e1f21" opacity=".355" rx="240.592" ry="72.414" class="color1E1F21 svgShape"/><ellipse cx="1683.424" cy="2219.057" fill="#1e1f21" opacity=".37" rx="236.673" ry="71.234" class="color1E1F21 svgShape"/><ellipse cx="1683.424" cy="2219.057" fill="#1e1f21" opacity=".385" rx="232.754" ry="70.055" class="color1E1F21 svgShape"/><ellipse cx="1683.424" cy="2219.057" fill="#1e1f21" opacity=".4" rx="228.834" ry="68.875" class="color1E1F21 svgShape"/><ellipse cx="1683.424" cy="2219.057" fill="#1e1f21" opacity=".415" rx="224.916" ry="67.695" class="color1E1F21 svgShape"/><ellipse cx="1683.424" cy="2219.057" fill="#1e1f21" opacity=".43" rx="220.996" ry="66.516" class="color1E1F21 svgShape"/><ellipse cx="1683.424" cy="2219.057" fill="#1e1f21" opacity=".445" rx="217.077" ry="65.336" class="color1E1F21 svgShape"/><ellipse cx="1683.424" cy="2219.057" fill="#1e1f21" opacity=".46" rx="213.158" ry="64.156" class="color1E1F21 svgShape"/><ellipse cx="1683.424" cy="2219.057" fill="#1e1f21" opacity=".475" rx="209.239" ry="62.977" class="color1E1F21 svgShape"/><ellipse cx="1683.424" cy="2219.057" fill="#1e1f21" opacity=".49" rx="205.319" ry="61.797" class="color1E1F21 svgShape"/><ellipse cx="1683.424" cy="2219.057" fill="#1e1f21" opacity=".505" rx="201.4" ry="60.617" class="color1E1F21 svgShape"/><ellipse cx="1683.424" cy="2219.057" fill="#1e1f21" opacity=".52" rx="197.48" ry="59.438" class="color1E1F21 svgShape"/><ellipse cx="1683.424" cy="2219.057" fill="#1e1f21" opacity=".535" rx="193.562" ry="58.258" class="color1E1F21 svgShape"/><ellipse cx="1683.424" cy="2219.057" fill="#1e1f21" opacity=".55" rx="189.643" ry="57.078" class="color1E1F21 svgShape"/><ellipse cx="1683.424" cy="2219.057" fill="#1e1f21" opacity=".565" rx="185.723" ry="55.898" class="color1E1F21 svgShape"/><ellipse cx="1683.424" cy="2219.057" fill="#1e1f21" opacity=".58" rx="181.804" ry="54.719" class="color1E1F21 svgShape"/><ellipse cx="1683.424" cy="2219.057" fill="#1e1f21" opacity=".595" rx="177.885" ry="53.539" class="color1E1F21 svgShape"/><ellipse cx="1683.424" cy="2219.057" fill="#1e1f21" opacity=".61" rx="173.965" ry="52.359" class="color1E1F21 svgShape"/><ellipse cx="1683.424" cy="2219.057" fill="#1e1f21" opacity=".625" rx="170.047" ry="51.18" class="color1E1F21 svgShape"/><ellipse cx="1683.424" cy="2219.057" fill="#1e1f21" opacity=".64" rx="166.127" ry="50" class="color1E1F21 svgShape"/><ellipse cx="1683.424" cy="2219.057" fill="#1e1f21" opacity=".655" rx="162.208" ry="48.821" class="color1E1F21 svgShape"/><ellipse cx="1683.424" cy="2219.057" fill="#1e1f21" opacity=".67" rx="158.289" ry="47.642" class="color1E1F21 svgShape"/><ellipse cx="1683.424" cy="2219.057" fill="#1e1f21" opacity=".685" rx="154.369" ry="46.462" class="color1E1F21 svgShape"/><ellipse cx="1683.424" cy="2219.057" fill="#1e1f21" opacity=".7" rx="150.45" ry="45.282" class="color1E1F21 svgShape"/><ellipse cx="1683.424" cy="2219.057" fill="#1e1f21" opacity=".715" rx="146.531" ry="44.103" class="color1E1F21 svgShape"/><ellipse cx="1683.424" cy="2219.057" fill="#1e1f21" opacity=".73" rx="142.612" ry="42.923" class="color1E1F21 svgShape"/><ellipse cx="1683.424" cy="2219.057" fill="#1e1f21" opacity=".745" rx="138.693" ry="41.743" class="color1E1F21 svgShape"/><ellipse cx="1683.424" cy="2219.057" fill="#1e1f21" opacity=".76" rx="134.773" ry="40.563" class="color1E1F21 svgShape"/><ellipse cx="1683.424" cy="2219.057" fill="#1e1f21" opacity=".775" rx="130.854" ry="39.384" class="color1E1F21 svgShape"/><ellipse cx="1683.424" cy="2219.057" fill="#1e1f21" opacity=".79" rx="126.936" ry="38.204" class="color1E1F21 svgShape"/><ellipse cx="1683.424" cy="2219.057" fill="#1e1f21" opacity=".805" rx="123.016" ry="37.024" class="color1E1F21 svgShape"/><ellipse cx="1683.424" cy="2219.057" fill="#1e1f21" opacity=".82" rx="119.097" ry="35.845" class="color1E1F21 svgShape"/><ellipse cx="1683.424" cy="2219.057" fill="#1e1f21" opacity=".835" rx="115.178" ry="34.665" class="color1E1F21 svgShape"/><ellipse cx="1683.424" cy="2219.057" fill="#1e1f21" opacity=".85" rx="111.258" ry="33.485" class="color1E1F21 svgShape"/><ellipse cx="1683.423" cy="2219.057" fill="#1e1f21" opacity=".865" rx="107.339" ry="32.306" class="color1E1F21 svgShape"/><ellipse cx="1683.424" cy="2219.057" fill="#1e1f21" opacity=".88" rx="103.42" ry="31.126" class="color1E1F21 svgShape"/><ellipse cx="1683.424" cy="2219.057" fill="#1e1f21" opacity=".895" rx="99.501" ry="29.947" class="color1E1F21 svgShape"/><ellipse cx="1683.424" cy="2219.057" fill="#1e1f21" opacity=".91" rx="95.582" ry="28.768" class="color1E1F21 svgShape"/><ellipse cx="1683.424" cy="2219.057" fill="#1e1f21" opacity=".925" rx="91.662" ry="27.588" class="color1E1F21 svgShape"/><ellipse cx="1683.424" cy="2219.057" fill="#1e1f21" opacity=".94" rx="87.743" ry="26.408" class="color1E1F21 svgShape"/><ellipse cx="1683.424" cy="2219.057" fill="#1e1f21" opacity=".955" rx="83.824" ry="25.229" class="color1E1F21 svgShape"/><ellipse cx="1683.424" cy="2219.057" fill="#1e1f21" opacity=".97" rx="79.905" ry="24.049" class="color1E1F21 svgShape"/><ellipse cx="1683.423" cy="2219.057" fill="#1e1f21" opacity=".985" rx="75.986" ry="22.869" class="color1E1F21 svgShape"/><ellipse cx="1683.424" cy="2219.057" fill="#1e1f21" rx="72.066" ry="21.689" class="color1E1F21 svgShape"/></g><rect width="210.326" height="17.17" x="557.611" y="388.777" fill="#ff8500" class="colorFF8500 svgShape"/><rect width="126.652" height="17.168" x="557.611" y="419.693" fill="#ff8500" class="colorFF8500 svgShape"/><rect width="210.326" height="17.169" x="557.611" y="450.608" fill="#ff8500" class="colorFF8500 svgShape"/><rect width="100.615" height="17.169" x="557.611" y="481.523" fill="#ff8500" class="colorFF8500 svgShape"/><rect width="210.324" height="17.17" x="1954.107" y="515.598" fill="#8ecc36" class="color8ECC36 svgShape"/><rect width="126.652" height="17.168" x="1954.107" y="546.514" fill="#8ecc36" class="color8ECC36 svgShape"/><rect width="210.324" height="17.169" x="1954.107" y="577.429" fill="#8ecc36" class="color8ECC36 svgShape"/><rect width="100.615" height="17.169" x="1954.107" y="608.344" fill="#8ecc36" class="color8ECC36 svgShape"/><g fill="#000000" class="color000 svgShape"><path fill="#fcbe63" d="M2271.616,1013.508c15.576-6.805,37.691-11.429,53.271-10.21c15.582,1.217,35.317-9.577,45.036-14.162    c9.718-4.584,30.21-6.565,48.049-7.567c17.841-1,17.77-11.361,5.836-11.496c-11.933-0.136-47.089,0.99-47.089,0.99    s53.721-10.68,62.805-13.674c9.087-2.992,12.975-13.669-11.277-10.097c-24.246,3.575-48.24,6.574-48.24,6.574    s33.541-11.127,50.826-14.799c17.287-3.672,20.104-10.055,10.853-10.603c-9.257-0.548-40.204,5.398-40.638,5.249    c-0.435-0.149-17.001,0.819-17.001,0.819s34.596-12.769,43.006-15.019c8.41-2.251,14.531-10.78-7.431-9.864    c-21.964,0.914-35.563,4.408-36.12,4.721c-0.554,0.311-23.706,2.985-52.122,17.274c-28.422,14.289-77.206,57.715-77.206,57.715    L2271.616,1013.508z" class="colorFCBE63 svgShape"/><path fill="#2b2b2b" d="M2787.039,806.688c0,38.835,31.499,70.315,70.335,70.315l7.104,193.063l-7.104,5.619h-538.016V537.671     l7.104-5.619l191.579,5.619c0,38.835,31.477,70.334,70.313,70.334c38.856,0,70.337-31.5,70.337-70.334l7.105-5.619     l198.68,198.682l-7.104,5.619C2818.538,736.353,2787.039,767.832,2787.039,806.688z" class="color2B2B2B svgShape"/><circle cx="2319.35" cy="806.683" r="70.33" fill="#2b2b2b" class="color2B2B2B svgShape"/><circle cx="2588.367" cy="1075.686" r="70.331" fill="#2b2b2b" class="color2B2B2B svgShape"/><path fill="#8ecc36" d="M2794.143,801.07c0,38.835,31.501,70.314,70.335,70.314v198.683h-538.015V532.051h198.682     c0,38.836,31.479,70.335,70.316,70.335c38.857,0,70.335-31.499,70.335-70.335h198.682v198.683     C2825.644,730.734,2794.143,762.213,2794.143,801.07z" class="color8ECC36 svgShape"/><circle cx="2326.454" cy="801.063" r="70.332" fill="#8ecc36" class="color8ECC36 svgShape"/><circle cx="2595.471" cy="1070.067" r="70.33" fill="#8ecc36" class="color8ECC36 svgShape"/><path fill="#ffcc7b" d="M2261.019,968.397c17.146-3.665,29.813-13.07,33.027-22.458c3.208-9.385,33.324-32.699,49.281-37.445    c15.953-4.741,15.692-10.125,17.977-3.987c2.287,6.136-19.538,24.549-26.764,31.147c-7.225,6.601-7.506,11.959-7.377,26.434    c0.128,14.476-41.531,39.767-64.424,42.003C2239.847,1006.332,2261.019,968.397,2261.019,968.397z" class="colorFFCC7B svgShape"/><path fill="#fcbe63" d="M1404.906,1017.083c-15.574-6.805-37.69-11.43-53.272-10.211c-15.581,1.219-35.317-9.575-45.035-14.161    c-9.719-4.584-30.21-6.565-48.05-7.567c-17.841-1-17.768-11.361-5.835-11.496c11.933-0.135,47.09,0.99,47.09,0.99    s-53.722-10.68-62.806-13.672c-9.085-2.995-12.972-13.671,11.276-10.098c24.248,3.573,48.242,6.574,48.242,6.574    s-33.541-11.126-50.829-14.799c-17.286-3.672-20.103-10.055-10.847-10.604c9.254-0.548,40.204,5.398,40.635,5.25    c0.434-0.15,16.998,0.817,16.998,0.817s-34.593-12.766-43.003-15.018c-8.41-2.25-14.531-10.779,7.432-9.864    c21.962,0.916,35.565,4.408,36.119,4.72c0.551,0.313,23.707,2.986,52.124,17.275c28.42,14.29,77.202,57.717,77.202,57.717    L1404.906,1017.083z" class="colorFCBE63 svgShape"/><path fill="#2b2b2b" d="M1271.287,718.372c0,38.834,31.501,70.315,70.334,70.315l7.105,193.064l-7.105,5.618H803.606V449.354     l7.105-5.619l191.578,5.619c0,38.835,31.478,70.334,70.315,70.334c38.854,0,70.336-31.5,70.336-70.334l7.104-5.619     l198.682,198.683l-7.105,5.619C1302.788,648.037,1271.287,679.516,1271.287,718.372z" class="color2B2B2B svgShape"/><circle cx="803.598" cy="718.366" r="70.331" fill="#2b2b2b" class="color2B2B2B svgShape"/><path fill="#2b2b2b" d="M1142.945,987.369c0,38.846-31.489,70.332-70.332,70.332s-70.329-31.485-70.329-70.332     c0-38.843,31.486-70.33,70.329-70.33S1142.945,948.526,1142.945,987.369z" class="color2B2B2B svgShape"/><path fill="#f2f2f2" d="M1278.392,712.753c0,38.835,31.498,70.315,70.334,70.315v198.684H810.71V443.734h198.683     c0,38.836,31.48,70.335,70.315,70.335c38.856,0,70.336-31.499,70.336-70.335h198.682v198.683     C1309.89,642.417,1278.392,673.896,1278.392,712.753z" class="colorF2F2F2 svgShape"/><circle cx="810.703" cy="712.747" r="70.332" fill="#f2f2f2" class="colorF2F2F2 svgShape"/><circle cx="1079.718" cy="981.751" r="70.331" fill="#f2f2f2" class="colorF2F2F2 svgShape"/><path fill="#ffcc7b" d="M1415.501,971.973c-17.144-3.664-29.813-13.07-33.021-22.458c-3.212-9.385-33.324-32.7-49.282-37.445    c-15.958-4.742-15.697-10.125-17.979-3.988c-2.284,6.138,19.538,24.55,26.763,31.149c7.225,6.601,7.506,11.959,7.377,26.433    c-0.129,14.475,41.53,39.767,64.425,42.005C1436.676,1009.906,1415.501,971.973,1415.501,971.973z" class="colorFFCC7B svgShape"/><path fill="#474747" d="M1848.17,2121.431c-3.271,6.562-1.642,30.067-1.964,51.292c-0.33,21.223-0.652,64.646,36.242,66.281    c36.895,1.633,69.547-6.531,63.669-25.471c-5.879-18.936-35.619-52.014-36.571-94.034c-0.952-42.015-15.782-46.364-15.782-46.364    l-20.46,9.579L1848.17,2121.431z" class="color474747 svgShape"/><path fill="#ffcc7b" d="M1853.386,2034.281c0,0-1.305,46.037-2.609,65.629c-1.308,19.589-5.223,21.549,0,32.975    c5.222,11.431,14.692,24.818,14.692,14.696c0-10.123-13.713-30.691,2.612-34.285c16.324-3.589,37.873-9.143,41.465,6.203    c0,0-2.283-65.614,0-81.621c2.287-16.003-43.425-7.514-43.425-7.514L1853.386,2034.281z" class="colorFFCC7B svgShape"/><path fill="#474747" d="M1501.965,2069.545c-10.348,8.49-14.591,23.51-15.57,46.691c-0.979,23.182-39.506,97.297-7.509,119.499    c31.998,22.206,84.236,23.51,86.197-16.976c1.957-40.486-14.04-71.834-12.409-104.484c1.634-32.65,6.857-41.141-3.916-46.363    C1537.981,2062.689,1501.965,2069.545,1501.965,2069.545z" class="color474747 svgShape"/><path fill="#ffcc7b" d="M1504.354,2031.345c0.652,15.672,1.427,27.429-2.389,36.239c-3.816,8.818-0.113,29.391,1.463,38.529    c1.578,9.143,6.476,3.267,5.495-7.184c-0.979-10.449,7.836-6.855,23.508-4.896c15.674,1.961,14.368,16.653,13.716,19.916    c-0.655,3.268-0.655,3.268-0.655,3.268s4.898,9.792,4.898-11.104s1.958-41.465,9.794-54.196c7.839-12.737,8.165-14.37,8.165-14.37    l-24.814-31.019l-33.959,18.94L1504.354,2031.345z" class="colorFFCC7B svgShape"/><path fill="#474747" d="M1637.566,1216.604c0,0-20.897,105.349-34.826,179.36c-13.932,74.011-69.655,311.702-87.067,409.222    c-17.413,97.517-13.28,230.075-13.28,230.075s12.081,23.182,32.325,24.162c20.243,0.979,35.049-8.489,35.049-8.489    s114.816-368.951,138.326-473.435c23.509-104.479,78.688-277.312,78.688-277.312s9.577-21.769,16.813,14.802    c7.237,36.569,20.736,270.35,24.65,365.688c3.918,95.338,10.448,268.385,14.369,302.344c3.914,33.958,2.284,65.924,2.284,65.924    s5.878,23.509,35.263,20.896c29.385-2.609,36.242-17.379,36.242-17.379s24.159-204.614,24.159-367.867    c0-163.255,30.477-410.53,0-500.207c-30.472-89.681-302.996,27.862-302.996,27.862V1216.604z" class="color474747 svgShape"/><path fill="#545454" d="M2287.967,1019.173c0,0-104.481,54.633-173.269,77.279c-68.778,22.635-87.936-10.449-112.32-59.216    c-24.371-48.753-60.939-154.109-60.939-154.109s-1.748,18.284-7.838,62.689c-6.098,44.404,3.044,143.231,16.108,194.166    c13.058,50.936,7.832,60.079-6.531,74.444c-12.734,12.733-43.948,31.632-122.769,37.574c-10.08,0.759-20.947,1.305-32.646,1.604    c-0.329,0.015-0.656,0.015-0.981,0.025c-102.575,2.482-162.288-14.496-167.499-45.736c-5.224-31.342,33.957-85.321,37.445-133.214    c3.473-47.89-1.529-157.375-1.529-157.375s-24.594,111.234-29.387,143.884c-4.792,32.65-28.73,54.409-50.502,50.491    c-21.76-3.917-178.927-90.115-178.927-90.115s0,0,1.307-20.021c1.305-20.021,13.062-35.265,13.062-35.265l138.007,35.265    c0,0,0,0,2.611-34.832c2.612-34.819,20.021-155.847,29.606-213.313c9.574-57.464,40.92-55.728,85.323-75.749    c0,0,145.622-30.039,248.799,0c103.173,30.038,82.933,31.344,116.235,120.155c33.302,88.809,60.729,201.127,60.729,201.127    s13.062,0,60.078-10.448c47.017-10.448,109.707-26.774,109.707-26.774s1.96,3.266,6.527,12.409    C2272.948,983.26,2287.967,1019.173,2287.967,1019.173z" class="color545454 svgShape"/><path fill="#606060" d="M1711.03,654.794c0,0-43.425,13.713-44.731,22.855c-1.305,9.142,34.829,84.023,50.063,94.904    c15.239,10.884,27.864,10.449,27.864,10.449l-27.864,14.365c0,0,58.336,93.164,84.784,104.918l0.979-52.241l-14.363-62.689    L1711.03,654.794z" class="color606060 svgShape"/><path fill="#606060" d="M1877.874,656.753c0,0,43.426,13.713,44.733,22.855c1.308,9.142-34.829,84.022-50.066,94.905    c-15.234,10.883-27.862,10.447-27.862,10.447l27.862,14.365c0,0-44.948,91.206-71.395,102.96l-14.365-50.283l14.365-62.69    L1877.874,656.753z" class="color606060 svgShape"/><path fill="#fcbe63" d="M1745.313,570.555c4.244,32.977,4.573,59.75-6.857,69.872c-11.428,10.123-27.426,14.367-27.426,14.367    l91.096,195.25l75.748-193.292c0,0-34.933-7.836-37.546-27.754c-2.613-19.917,0.326-50.281,0.326-50.281L1745.313,570.555z" class="colorFCBE63 svgShape"/><polygon fill="#d6d6d8" points="1777.963 742.733 1794.455 770.16 1812.574 739.686 1835.165 765.74 1802.126 850.045 1760.116 760.001" class="colorD6D6D8 svgShape"/><path fill="#ffcc7b" d="M1696.99,508.193c-7.836,26.447,10.773,42.445,19.916,49.954c9.145,7.511,16.001,3.592,16.001,3.592    s13.714,21.549,36.241,35.589c22.528,14.039,36.569,16,36.569,16s9.793-0.654,31.019-18.611    c21.223-17.959,26.446-33.957,26.446-33.957s17.958,1.873,26.774-18.98c8.814-20.853,6.528-24.445,6.528-24.445    s-3.373-56.921-18.611-73.899c-15.234-16.979-20.894-39.616-84.892-28.732c-63.993,10.883-78.359,27.862-78.359,27.862    L1696.99,508.193z" class="colorFFCC7B svgShape"/><path fill="#222222" d="M1696.99,508.193c6.205-6.531,15.673-5.225,18.286,4.244c2.612,9.468,5.878,24.489,7.183,26.774    c1.305,2.284,8.162,4.57,4.896-7.51c-3.265-12.08-6.201-26.075-1.632-27.566c4.57-1.494,28.732,2.1,20.242-24.022    c-8.487-26.121-1.305-36.896-1.305-36.896s-5.55,31.671,11.101,43.427c0,0,46.364,12.08,50.935-9.47    c4.573-21.548,4.899-47.669,4.899-47.669s16.323,31.345,0,52.241c0,0,36.567,20.896,47.346,1.96    c10.771-18.938,9.464-24.163,9.464-24.163s-1.306,22.203-8.814,30.365c-7.51,8.163,1.634,11.428,6.53,12.407    s6.53,12.734,4.244,26.774c-2.284,14.041,2.286,20.569,6.53-2.611c4.245-23.183,6.527-22.857,12.406-22.205    c5.879,0.653,7.184,13.062,7.184,13.062s27.101-124.399-61.058-142.03c-88.154-17.632-127.335,39.834-134.3,68.131    C1694.16,471.733,1696.99,508.193,1696.99,508.193z" class="color222 svgShape"/><polygon fill="#e4e5ea" points="1801.146 736.639 1794.455 770.16 1812.69 746.514 1815.187 736.639" class="colorE4E5EA svgShape"/><polygon fill="#e4e5ea" points="1787.763 734.68 1794.455 770.16 1769.476 747.087" class="colorE4E5EA svgShape"/><path fill="#f1f3f9" d="M1730.249 646.392c26.603 38.658 57.514 88.288 57.514 88.288l-27.646 25.321-49.086-105.207L1730.249 646.392zM1858.014 649.287c-26.602 38.66-56.867 87.352-56.867 87.352l34.019 29.101 42.709-108.986L1858.014 649.287z" class="colorF1F3F9 svgShape"/><path fill="#606060" d="M1820.409,872.677V1252c-10.08,0.759-20.947,1.305-32.646,1.604c-0.329,0.015-0.656,0.015-0.981,0.025    V872.677H1820.409z" class="color606060 svgShape"/></g><g fill="#000000" class="color000 svgShape"><rect width="53.348" height="10.354" x="1032.997" y="848.38" fill="#ffffff" stroke="#A4D1E4" stroke-linejoin="bevel" stroke-miterlimit="10" stroke-width="7" transform="rotate(-2.922 1059.381 853.462)" class="colorFFF svgShape colorStrokeA4D1E4 svgStroke"/><rect width="53.346" height="10.354" x="1033.951" y="867.12" fill="#ffffff" stroke="#A4D1E4" stroke-linejoin="bevel" stroke-miterlimit="10" stroke-width="7" transform="rotate(-2.922 1060.167 872.067)" class="colorFFF svgShape colorStrokeA4D1E4 svgStroke"/><rect width="53.35" height="10.353" x="1034.916" y="886.045" fill="#ffffff" stroke="#A4D1E4" stroke-linejoin="bevel" stroke-miterlimit="10" stroke-width="7" transform="rotate(-2.922 1061.442 891.233)" class="colorFFF svgShape colorStrokeA4D1E4 svgStroke"/><rect width="24.683" height="10.354" x="1050.268" y="906.064" fill="#ffffff" stroke="#A4D1E4" stroke-linejoin="bevel" stroke-miterlimit="10" stroke-width="7" transform="rotate(-2.922 1062.53 911.31)" class="colorFFF svgShape colorStrokeA4D1E4 svgStroke"/><path fill="#ffffff" stroke="#A4D1E4" stroke-linejoin="bevel" stroke-miterlimit="10" stroke-width="7" d="M1111.759,779.253    l-0.003-0.001c8.528-12.327,13.207-27.458,12.384-43.585c-1.978-38.823-35.054-68.69-73.875-66.712    c-38.825,1.978-68.694,35.054-66.714,73.876c0.821,16.127,7.013,30.704,16.751,42.101h-0.002c0.011,0.015,0.023,0.026,0.035,0.04    c0.836,0.979,1.697,1.935,2.586,2.865c20.985,23.01,28.034,24.985,29.418,52.196l53.145-2.708    c-1.386-27.21,5.423-29.892,23.96-54.915c0.79-1.016,1.551-2.055,2.284-3.115C1111.736,779.279,1111.748,779.267,1111.759,779.253    z" class="colorFFF svgShape colorStrokeA4D1E4 svgStroke"/><path fill="none" stroke="#FFCE00" stroke-miterlimit="10" stroke-width="7" d="M1052.643,835.818    c-1.385-27.17-7.08-45.194-22.007-49.873c-14.928-4.68-8.944-42.185,6.915-29.936c15.857,12.249,1.344,28.561-2.142,13.505    c-3.487-15.057,7.619-22.495,18.438-17.707c17.264,7.64,3.277,39.499,0,19.455c-3.202-19.581,16.904-30.887,23.648-15.998    c6.745,14.89-3.849,32.209-7.283,18.238c-3.43-13.971,12.34-25.772,17.074-12.956c4.732,12.815-10.547,27.945-15.574,36.089    c-5.024,8.146-3.63,38.385-3.63,38.385" class="colorStrokeFFCE00 svgStroke"/><line x1="1049.637" x2="1042.95" y1="656.605" y2="525.438" fill="none" stroke="#A4D1E4" stroke-linejoin="bevel" stroke-miterlimit="10" stroke-width="7" class="colorStrokeA4D1E4 svgStroke"/><line x1="971.665" x2="839.347" y1="744.162" y2="750.904" fill="none" stroke="#A4D1E4" stroke-linejoin="bevel" stroke-miterlimit="10" stroke-width="7" class="colorStrokeA4D1E4 svgStroke"/><line x1="1268.417" x2="1136.101" y1="729.041" y2="735.783" fill="none" stroke="#A4D1E4" stroke-linejoin="bevel" stroke-miterlimit="10" stroke-width="7" class="colorStrokeA4D1E4 svgStroke"/><line x1="992.18" x2="894.454" y1="684.253" y2="596.004" fill="none" stroke="#A4D1E4" stroke-linejoin="bevel" stroke-miterlimit="10" stroke-width="7" class="colorStrokeA4D1E4 svgStroke"/><line x1="1213.312" x2="1114.681" y1="883.942" y2="794.874" fill="none" stroke="#A4D1E4" stroke-linejoin="bevel" stroke-miterlimit="10" stroke-width="7" class="colorStrokeA4D1E4 svgStroke"/><line x1="998.98" x2="909.914" y1="800.77" y2="899.4" fill="none" stroke="#A4D1E4" stroke-linejoin="bevel" stroke-miterlimit="10" stroke-width="7" class="colorStrokeA4D1E4 svgStroke"/><line x1="1197.852" x2="1109.599" y1="580.543" y2="678.274" fill="none" stroke="#A4D1E4" stroke-linejoin="bevel" stroke-miterlimit="10" stroke-width="7" class="colorStrokeA4D1E4 svgStroke"/><line x1="1015.883" x2="955.997" y1="665.741" y2="548.757" fill="none" stroke="#A4D1E4" stroke-linejoin="bevel" stroke-miterlimit="10" stroke-width="7" class="colorStrokeA4D1E4 svgStroke"/><line x1="981" x2="862.67" y1="777.28" y2="837.858" fill="none" stroke="#A4D1E4" stroke-linejoin="bevel" stroke-miterlimit="10" stroke-width="7" class="colorStrokeA4D1E4 svgStroke"/><line x1="1245.099" x2="1127.599" y1="642.088" y2="702.236" fill="none" stroke="#A4D1E4" stroke-linejoin="bevel" stroke-miterlimit="10" stroke-width="7" class="colorStrokeA4D1E4 svgStroke"/><line x1="975.125" x2="849.457" y1="714.547" y2="673.978" fill="none" stroke="#A4D1E4" stroke-linejoin="bevel" stroke-miterlimit="10" stroke-width="7" class="colorStrokeA4D1E4 svgStroke"/><line x1="1258.306" x2="1130.148" y1="805.966" y2="764.592" fill="none" stroke="#A4D1E4" stroke-linejoin="bevel" stroke-miterlimit="10" stroke-width="7" class="colorStrokeA4D1E4 svgStroke"/><line x1="1119.877" x2="1079.51" y1="535.548" y2="660.586" fill="none" stroke="#A4D1E4" stroke-linejoin="bevel" stroke-miterlimit="10" stroke-width="7" class="colorStrokeA4D1E4 svgStroke"/><path fill="none" stroke="#A4D1E4" stroke-linejoin="bevel" stroke-miterlimit="10" stroke-width="7" d="M1131.509,763.803" class="colorStrokeA4D1E4 svgStroke"/></g><g fill="#000000" class="color000 svgShape"><path fill="#ffffff" stroke="#A4D1E4" stroke-linejoin="bevel" stroke-miterlimit="10" stroke-width="9" d="M2586.855,923.822    h-10.411c1.118-21.716,3.805-39.743,8.061-54.075c4.251-14.327,13.1-34.259,26.533-59.785    c10.298-19.481,17.015-34.479,20.153-45.007c3.134-10.522,4.701-21.16,4.701-31.908c0-21.942-5.877-39.407-17.632-52.396    c-11.756-12.983-26.031-19.48-42.824-19.48c-15.23,0-27.154,3.526-35.77,10.58c-8.623,7.054-12.933,14.726-12.933,23.008    c0,6.497,2.571,14.442,7.726,23.847c5.148,9.404,7.725,16.457,7.725,21.159c0,6.271-1.963,11.536-5.877,15.787    c-3.922,4.256-8.791,6.381-14.61,6.381c-7.17,0-13.771-3.579-19.817-10.748c-6.046-7.163-9.068-17.129-9.068-29.893    c0-19.701,8.396-37.114,25.191-52.228c16.794-15.114,39.633-22.672,68.518-22.672c35.602,0,61.801,10.412,78.594,31.236    c12.537,15.23,18.81,32.133,18.81,50.717c0,12.763-2.802,25.809-8.397,39.129c-5.599,13.325-16.346,28.943-32.244,46.854    c-25.08,28.439-40.421,48.591-46.014,60.457C2591.668,886.656,2588.198,902.999,2586.855,923.822z M2583.497,956.066    c8.062,0,14.889,2.854,20.488,8.564c5.594,5.71,8.396,12.595,8.396,20.656c0,8.062-2.853,14.894-8.563,20.489    c-5.71,5.594-12.485,8.396-20.321,8.396c-8.061,0-14.893-2.802-20.488-8.396c-5.6-5.595-8.396-12.427-8.396-20.489    c0-8.061,2.797-14.946,8.396-20.656C2568.604,958.921,2575.437,956.066,2583.497,956.066z" class="colorFFF svgShape colorStrokeA4D1E4 svgStroke"/></g><g fill="#000000" class="color000 svgShape"><path fill="#030303" d="M592.521,698.52c-65.349,11.729-126.23,12.846-127.906,13.963c-1.675,1.117-39.097,3.352-39.097,3.352    s27.391,75.961,27.938,88.808c0.548,12.846,16.746,29.214,22.331,42.533c5.584,13.319-5.587,34.398,55.853,23.021    c61.44-11.378,75.962-43.214,75.962-43.214L592.521,698.52z" class="color030303 svgShape"/><path fill="#424242" d="M542.075,2062.602c-8.533,9.021-8.533,20.149-8.215,46.857s-30.309,120.187,8.215,135.45    c38.525,15.263,80.494,3.18,72.228-44.516c-8.267-47.693-17.487-82.033-20.349-117.643c-2.861-35.611-30.841-36.246-30.841-36.246    l-12.401,11.127L542.075,2062.602z" class="color424242 svgShape"/><path fill="#ffcc7b" d="M550.394,2012.802c0,0-2.225,30.205-6.359,41.971c-4.133,11.764-3.179,27.023,0,37.834    c3.18,10.813,9.538,7.633,8.267-8.265c-1.271-15.897,1.589-19.398,20.031-17.806c18.441,1.59,21.621,16.215,21.621,16.215    s-3.498-21.303,0-40.697c3.498-19.396,2.862-29.252,2.862-29.252H550.394z" class="colorFFCC7B svgShape"/><path fill="#424242" d="M281.086,2051.591c-10.811,13.673-8.267,20.346-13.354,41.652c-5.088,21.303-19.079,55.007-30.525,83.306    c-11.446,28.296-6.36,55.96,17.806,61.366c24.164,5.404,50.555,1.271,60.094-34.341c9.537-35.612,10.719-46.103,16.17-75.356    c5.45-29.251,0.905-38.769-4.341-69.285C321.692,2028.417,281.086,2051.591,281.086,2051.591z" class="color424242 svgShape"/><path fill="#ffcc7b" d="M282.517,2015.661c0,0-4.292,46.106-7.791,63.912c-3.498,17.805,2.226,6.676,4.929-5.406    c2.703-12.084,13.832-13.354,29.411-7.631c15.579,5.723,8.585,24.482,12.083,28.934c3.496,4.452,5.404-10.812,5.404-10.812    s0-59.14,4.451-74.083c4.452-14.943-47.057-5.088-47.057-5.088L282.517,2015.661z" class="colorFFCC7B svgShape"/><path fill="#424242" d="M382.195,1328.878c0,0-34.339,151.665-48.647,245.143c-14.307,93.48-46.74,213.667-49.601,297.606    c-2.862,83.941-4.292,146.419-4.292,146.419s14.786,15.261,36.723,11.447c21.94-3.816,23.371-10.971,23.371-10.971    s45.626-158.977,55.801-223.202c10.175-64.228,42.924-191.729,62.001-262.314c19.077-70.586,61.047-142.128,61.047-142.128    l15.261,2.863c0,0,9.54,121.142,8.585,183.141c-0.954,62.003,0.048,124.07,0.067,241.39c0.018,117.323,5.656,194.53,5.656,194.53    s-3.816,14.259,25.437,17.302c29.252,3.046,30.523-5.222,30.523-5.222s40.38-162.791,42.289-263.902    c1.908-101.11,49.601-317.637,21.938-413.979c-27.662-96.34-217.482-79.171-217.482-79.171L382.195,1328.878z" class="color424242 svgShape"/><path fill="#9cbdef" d="M855.791,905.838c0,0,21.942-20.189,41.97,5.882l-5.563,13.514l-39.428,1.271L855.791,905.838z" class="color9CBDEF svgShape"/><path fill="#ffc166" d="M1009.205,827.78c-0.319,6.278-7.234,13.433-23.927,24.164c-16.693,10.731-41.017,26.232-60.571,33.862    c-19.554,7.631-26.471,10.731-28.378,18.362c-1.908,7.631-5.007,18.838-5.007,18.838l-33.148-3.1l-2.384-5.008    c0,0,0.954-14.437,3.578-32.853c2.623-18.417,22.892-34.156,22.892-34.156l45.547,7.393l51.748-26.47L1009.205,827.78z" class="colorFFC166 svgShape"/><path fill="#b6d2fc" d="M698.88 870.196c31.477 15.134 40.062 37.549 74.401 85.242 34.34 47.693 48.648 56.756 48.648 56.756l33.862-106.356c0 0-.476 11.446 15.739 13.036 16.216 1.59 26.231-7.154 26.231-7.154s1.273.637-1.589 6.36c-2.862 5.723-6.995 47.852-9.38 100.791-2.386 52.939 1.431 116.849-54.371 105.403-55.801-11.447-133.541-155.004-155.957-152.143-22.417 2.861-38.633-74.401-38.633-74.401L698.88 870.196zM417.17 963.55c0 0-46.306 110.517-80.836 181.117-12.85 26.28-20.264 48.713-28.543 55.443-25.98 21.11-47.82.75-63.93-40.69 5.86-26.38 16.115-58.84 35.795-96.42 0 0 19.604-41.49 35.345-93 15.74-51.51 31.42-71.32 55.75-87.85L417.17 963.55z" class="colorB6D2FC svgShape"/><path fill="#95b5e5" d="M453.418,849.401c-50.237,18.123-82.668,32.749-82.668,32.749s40.062,109.059,53.416,177.736    c13.354,68.68-41.97,219.001-53.416,247.616c-11.446,28.617-136.333,224.911-136.333,224.911s45.239,135.725,157.829,173.063    c63.79,21.154,238.322,22.393,297.461,9.993c59.141-12.399,122.32-114.357,122.32-114.357s-143.33-279.037-155.116-467.778    c-5.237-83.863,41.97-263.139,41.97-263.139l-68.679-23.021L453.418,849.401z" class="color95B5E5 svgShape"/><path fill="#b6d2fc" d="M331.65,1395.58c0,0,5.35,15.42-49.61-82.58c-36-64.19-49.31-103.49-38.18-153.58    c5.86-26.38,18.5-55.75,38.18-93.33c0,0,83.026,2.207,54.293,78.577c-35.76,95.046,42.167,200.753,42.167,200.753L331.65,1395.58z    " class="colorB6D2FC svgShape"/><path fill="#9cbdef" d="M698.88,870.196c-22.802,68.874-6.947,100.253-13.045,139.137c-6.098,38.883-8.81,57.785-48.003,63.883    c-39.192,6.098-46.509-37.195-96.022-19.513c-30.817,11.007-90.07,46.506-116.29,12.195c-26.219-34.311-7.56-39.594-21.195-82.802    C390.688,939.888,370.75,882.15,370.75,882.15l60.781-24.666c0,0,12.688-3.552,24.808-1.036    c12.118,2.516,44.624,13.077,44.624,13.077s54.081,1.252,81.519-8.504c27.439-9.756,46.265-14.634,46.265-14.634    s31.173,10.749,39.948,13.69C677.469,863.02,698.88,870.196,698.88,870.196z" class="color9CBDEF svgShape"/><path fill="#ffc166" d="M478.219,763.87c11.445,27.346,18.759,53.098,7.629,66.771c-11.128,13.673-32.431,18.761-32.431,18.761    s10.811,26.39,87.12,19.712c76.309-6.676,89.664-21.938,89.664-21.938s-48.17-9.538-55.324-44.354    c-7.155-34.815-2.863-73.447-2.863-73.447l-82.032,6.677L478.219,763.87z" class="colorFFC166 svgShape"/><path fill="#ffcc7b" d="M412.083 715.542c-.557 17.407 4.452 29.331 12.321 33.861 7.87 4.531 17.169 9.539 21.462 7.631 4.293-1.907 6.2-6.199 6.2-6.199s13.831 20.746 35.532 20.746c21.7 0 36.485 4.292 58.186-6.677 21.7-10.97 32.43-19.315 36.962-28.378 4.531-9.063 7.392-18.601 7.392-18.601s4.452 6.678 11.607-.635c7.154-7.314 15.262-16.375 13.513-25.277-1.75-8.903-2.862-12.401-2.862-12.401l-5.087-19.395c0 0-48.289-71.063-93.538-71.54-45.249-.478-92.466 17.169-99.143 37.678C407.95 646.863 412.083 715.542 412.083 715.542zM882.26 842.644c-17.169 22.655-3.815 26.231-3.815 26.231s.239 16.932 31.955 12.4c31.717-4.531 54.45-22.495 72.891-34.417 18.443-11.925 25.437-17.012 25.915-19.078.477-2.067-.637-2.862-.637-2.862s10.811-8.862 12.241-12.679c1.431-3.814-5.724-4.054-5.724-4.054s5.605-4.411 2.743-8.346c-2.861-3.935-15.858 2.623-15.858 2.623s-1.669-6.081-12.758 0c-11.088 6.08-32.55 24.085-43.878 30.165-11.327 6.082-23.249 10.255-30.085 8.982-6.837-1.271-6.678-6.518.794-14.784 7.474-8.267 14.151-14.785 11.288-21.621-2.862-6.835-5.247-7.153-9.379-2.544-4.134 4.61-18.917 20.668-24.959 27.663C886.951 837.318 882.26 842.644 882.26 842.644z" class="colorFFCC7B svgShape"/><path fill="#212121" d="M417.17,749.346c-14.1-41.391-19.711-57.889-21.942-64.461c-7.627-21.018-11.196-50.658,7.953-81.9    c29.984-48.92,78.216-74.4,143.716-50.235c16.064,5.926,28.182,16.583,37.333,29.284c0.003,0.004,0.006,0.007,0.01,0.01    c18.931,19.392,38.023,73.607,39.699,167.023c1.676,93.415,23.464,103.874,23.464,103.874c-8.162-2.736-17.201-5.766-17.201-5.766    c-14.488,12.475-60.068,48.907-60.068,48.907s1.721-9.896,15.686-55.138c13.135-42.556,11.488-111.688-18.09-180.752    c-0.055,0.01-0.108,0.016-0.165,0.025c-18.124,3.179-27.994,4.387-27.994,4.387c11.205-23.553-8.254-53.67-8.254-53.67    s14.913,44.228-13.068,67.756c-27.98,23.528-45.114,16.757-45.114,16.757c-0.283-17.815-25.889-64.104-29.231-67.883    c1.188,1.561,12.735,31.574,19.316,46.1c8.329,18.382-6.026,24.335-14.801,31.837c2.556,47.265,8.342,71.794,25.134,104.306    c19.688,38.12,39.606,89.785,39.606,89.785s-29.275-27.632-49.087-33.495c-8.328-2.464-32.542-8.612-32.542-8.612l-23.993,9.304    C407.537,866.788,440.185,816.904,417.17,749.346z" class="color212121 svgShape"/><path fill="#ffc166" d="M339.976,1386.666l22.358,46.001c0,0,38.333-14.002,49.333-46.001c0,0-23.601-0.669-39.467-34.501    L339.976,1386.666z" class="colorFFC166 svgShape"/><path fill="#7297cc" d="M411.667 1386.666c0 0 73.333 98.334 0 152.334 0 0 24.33-21.68 27.833-58C442.667 1448.167 411.667 1386.666 411.667 1386.666L411.667 1386.666zM633.668 1386.666c0 0-73.333 98.334 0 152.334 0 0-24.33-21.68-27.833-58C602.668 1448.167 633.668 1386.666 633.668 1386.666L633.668 1386.666z" class="color7297CC svgShape"/></g></svg>